<svg xmlns="http://www.w3.org/2000/svg" xmlns:xlink="http://www.w3.org/1999/xlink" xmlns:fi="http://pattern.flaticon.com/" x="0" y="0" width="1280" height="3704" viewBox="0 0 1353.4743202416919 3916.6163141993957"><rect x="0px" y="0px" width="100%" height="100%" opacity="1" fill="#ffffff"/><defs><g transform="matrix(0.10203331706073526 -0.03967962317891041 0.03967962317891041 0.10203331706073526 274.9215764498665 17.561363922148892)" id="L1_17"><path d="m334.954 137.804h-245.189c-4.16 0-7.532 3.372-7.532 7.532s3.372 7.532 7.532 7.532h245.19c4.16 0 7.532-3.372 7.532-7.532s-3.373-7.532-7.533-7.532z"/><path d="m89.765 100.621h122.594c4.16 0 7.532-3.372 7.532-7.532s-3.372-7.532-7.532-7.532h-122.594c-4.16 0-7.532 3.372-7.532 7.532 0 4.161 3.372 7.532 7.532 7.532z"/><path d="m334.954 184.096h-245.189c-4.16 0-7.532 3.372-7.532 7.532s3.372 7.532 7.532 7.532h245.19c4.16 0 7.532-3.372 7.532-7.532-.001-4.16-3.373-7.532-7.533-7.532z"/><path d="m145.618 459.668h-78.467c-12.879 0-23.358-10.478-23.358-23.357v-397.89c0-12.879 10.479-23.358 23.358-23.358h226.056c.73 0 1.449.067 2.16.163v46.974c0 21.186 17.236 38.421 38.421 38.421h46.973c.097.712.163 1.431.163 2.161v128.261c0 4.16 3.372 7.532 7.532 7.532s7.532-3.372 7.532-7.532v-128.26c0-8.262-3.218-16.03-9.06-21.873l-71.85-71.85c-5.842-5.842-13.609-9.06-21.871-9.06h-226.056c-21.186 0-38.421 17.236-38.421 38.421v397.89c0 21.185 17.236 38.42 38.421 38.42h78.467c4.16 0 7.532-3.372 7.532-7.532s-3.372-7.531-7.532-7.531zm224.655-374.11h-36.484c-12.879 0-23.358-10.479-23.358-23.358v-36.484z"/><path d="m480.958 368.729-63.818-107.72c-4.651-7.854-14.773-10.45-22.631-5.795l-15.523 9.197c-12.049 7.138-17.142 21.583-13.005 34.384-5.23 1.895-10.964 1.865-16.244-.176-12.256-3.856-21.574-11.613-36.963-7.721-26.13 6.653-25.336 6.32-27.7 7.13-15.3-8.711-24.497-11.303-40.739-5.02l-14.478 5.597c-6.703 2.59-14.089 1.976-20.283-1.694l-3.951-2.329c1.928-11.552-3.195-23.743-14.043-30.169 0 0 0 0-.001-.001l-15.522-9.196c-7.836-4.641-17.988-2.043-22.63 5.793l-63.82 107.721c-4.651 7.852-2.063 17.977 5.793 22.63l15.522 9.196c4.697 2.783 9.859 4.106 14.959 4.106 5.687 0 11.294-1.648 16.088-4.752l3.235 1.909-6.83 9.513c-8.139 11.338-5.553 27.104 5.787 35.244 5.244 3.764 11.832 5.483 18.645 4.413 1.081 6.319 4.543 12.233 10.149 16.259 5.265 3.78 11.823 5.501 18.648 4.426 1.084 6.314 4.544 12.223 10.147 16.246 7.53 5.405 16.892 6.03 24.693 2.698 1.707 4.434 4.674 8.438 8.813 11.41 10.808 7.757 25.696 5.734 34.094-4.316l18.15 10.752c12.003 7.113 27.49 3.16 34.607-8.857 1.82-3.072 2.949-6.42 3.362-9.861l.041.025c11.985 7.098 27.507 3.124 34.607-8.858 2.056-3.471 3.183-7.236 3.457-11.009 10.564 2.656 22.077-1.781 27.907-11.621 1.913-3.228 3.022-6.715 3.387-10.224 11.322 4.443 24.555.149 30.949-10.643 3.439-5.805 4.412-12.601 2.739-19.138-.957-3.74-2.717-7.135-5.133-10.002l10.004-5.845c8.463 3.474 18.121 2.918 26.215-1.876l15.52-9.196c7.856-4.65 10.451-14.773 5.796-22.63zm-362.358 18.868-15.522-9.197c-.69-.409-.919-1.303-.511-1.993l63.82-107.723c.411-.693 1.308-.918 1.994-.51l15.521 9.195c6.897 4.087 9.055 12.933 5.043 19.704l-50.641 85.48c-4.042 6.824-12.88 9.085-19.704 5.044zm34.345 46.742c-4.574-3.284-5.62-9.646-2.334-14.222l10.039-13.984c3.198-4.455 9.571-5.674 14.222-2.335 4.565 3.277 5.612 9.656 2.336 14.221l-10.04 13.984c-3.277 4.567-9.66 5.611-14.223 2.336zm28.795 20.673c-4.565-3.278-5.612-9.659-2.335-14.223l10.039-13.983s0 0 0-.001c0 0 0-.001.001-.001l11.079-15.432c1.588-2.211 3.941-3.673 6.627-4.113.558-.092 1.117-.137 1.672-.137 2.114 0 4.171.658 5.923 1.915 2.21 1.588 3.672 3.94 4.112 6.626.441 2.687-.19 5.384-1.778 7.595l-21.119 29.418c-3.282 4.575-9.645 5.622-14.221 2.336zm28.795 20.671c-4.563-3.276-5.611-9.652-2.34-14.216.001-.002.003-.004.004-.006l21.119-29.417c3.275-4.564 9.659-5.612 14.222-2.336 4.565 3.277 5.612 9.657 2.335 14.222l-9.383 13.071s0 0-.001.001l-11.735 16.346c-3.277 4.565-9.655 5.614-14.221 2.335zm33.506 14.108c-4.562-3.276-5.611-9.649-2.342-14.214l7.029-9.79c3.276-4.566 9.659-5.61 14.222-2.335 4.564 3.276 5.612 9.657 2.335 14.222l-7.023 9.781c-3.276 4.566-9.658 5.614-14.221 2.336zm168.819-60.052c-2.866 4.837-9.13 6.441-13.968 3.576-8.192-4.853-61.036-36.16-66.67-39.498-3.58-2.12-8.199-.939-10.319 2.64s-.939 8.199 2.64 10.319l50.403 29.861.001.001c4.839 2.866 6.453 9.111 3.576 13.969-2.867 4.839-9.134 6.44-13.97 3.577-18.642-11.044-33.779-20.012-50.43-29.877-3.581-2.12-8.199-.939-10.319 2.64s-.939 8.199 2.64 10.319l37.138 22.002.008.005c4.842 2.875 6.44 9.117 3.569 13.965-2.867 4.839-9.132 6.442-13.971 3.576l-19.931-11.807c-.002-.001-.005-.002-.007-.004-.002-.001-.004-.002-.006-.003l-14.545-8.618c-3.58-2.121-8.199-.94-10.319 2.64-2.12 3.579-.939 8.199 2.64 10.319l14.548 8.619c.002.001.004.003.006.004 4.839 2.866 6.453 9.11 3.576 13.968-2.867 4.839-9.132 6.442-13.971 3.576l-16.971-10.053c7.275-11.226 4.508-26.354-6.473-34.236-3.225-2.314-6.816-3.755-10.489-4.374 3.896-10.417.537-22.579-8.922-29.369-5.6-4.022-12.305-5.411-18.633-4.419-1.126-6.585-4.727-12.353-10.16-16.252-10.218-7.333-24.104-5.924-32.681 2.753-1.743-3.061-4.149-5.807-7.193-7.992-8.491-6.094-19.515-6.151-27.921-1.018l-3.451-2.037 47.37-79.959 2.255 1.33c9.96 5.9 22.114 7.13 33.378 2.774l14.478-5.597c8.285-3.202 12.854-3.411 21.049.456-5.362 6.024-8.545 13.933-8.545 22.457v33.395c0 8.87 7.211 16.091 16.074 16.097h.022c8.89 0 17.25-3.461 23.539-9.746 3.666-3.664 6.372-8.032 7.994-12.8 9.725 5.759 90.072 53.338 99.387 58.857 2.343 1.388 4.005 3.605 4.68 6.243.675 2.635.282 5.378-1.106 7.721zm54.628-51.339-15.523 9.197c-6.824 4.04-15.662 1.777-19.702-5.043l-23.736-40.065c-2.121-3.579-6.743-4.76-10.319-2.642-3.579 2.12-4.761 6.74-2.642 10.319l23.736 40.066c.447.754.932 1.471 1.434 2.17l-6.599 3.855c-1.334.79-2.617 1.66-3.844 2.605l-102.323-60.595c-5.013-2.967-11.369.65-11.369 6.48-.079.45.778 8.192-5.345 14.313-3.444 3.441-8.022 5.337-12.891 5.337-.004 0-.008 0-.012 0-.563 0-1.021-.464-1.021-1.034v-33.395c0-8.724 6.002-16.084 14.119-18.139l25.016-6.331c9.077-2.294 14.208 2.553 27.799 7.153 9.435 3.65 19.694 3.425 28.8-.464l4.546 7.674c2.121 3.581 6.741 4.761 10.319 2.642 3.579-2.12 4.761-6.74 2.642-10.319l-8.954-15.113c-4.051-6.838-1.794-15.65 5.043-19.703l15.522-9.195c.678-.403 1.575-.197 1.995.511l63.818 107.721c.412.695.185 1.584-.509 1.995z"/></g><g transform="matrix(0.11180340273253676 0.04542013039474401 -0.04542013039474401 0.11180340273253676 158.00588228152506 220.75077551941612)" id="L1_18"><path d="M96,277.333c-29.397,0-53.333,23.936-53.333,53.333S66.603,384,96,384s53.333-23.936,53.333-53.333    S125.397,277.333,96,277.333z M96,362.667c-17.643,0-32-14.357-32-32c0-17.643,14.357-32,32-32c17.643,0,32,14.357,32,32    C128,348.309,113.643,362.667,96,362.667z"/><path d="M416,277.333c-29.397,0-53.333,23.936-53.333,53.333S386.603,384,416,384s53.333-23.936,53.333-53.333    S445.397,277.333,416,277.333z M416,362.667c-17.643,0-32-14.357-32-32c0-17.643,14.357-32,32-32c17.643,0,32,14.357,32,32    C448,348.309,433.643,362.667,416,362.667z"/><path d="M448,213.333h-18.048c-6.592,0-13.056-2.261-18.219-6.4l-84.053-67.243C318.251,132.16,306.411,128,294.357,128H140.16    c-17.877,0-34.453,8.875-44.373,23.744l-18.155,27.264C72.192,187.136,63.104,192,53.333,192C23.936,192,0,215.936,0,245.333V288    c0,29.397,23.936,53.333,53.333,53.333c5.888,0,10.667-4.779,10.667-10.667S59.221,320,53.333,320c-17.643,0-32-14.357-32-32    v-42.667c0-17.643,14.357-32,32-32c16.939,0,32.64-8.405,42.048-22.507l18.155-27.243c5.952-8.917,15.915-14.251,26.624-14.251    h154.197c7.253,0,14.336,2.496,20.011,7.019l84.053,67.221c8.896,7.147,20.117,11.093,31.552,11.093H448    c31.296,0,42.667,31.893,42.667,53.333c0,21.013-16.085,32-32,32c-5.888,0-10.667,4.779-10.667,10.667s4.779,10.667,10.667,10.667    C489.067,341.333,512,318.4,512,288C512,251.797,489.579,213.333,448,213.333z"/><path d="M373.333,320H138.667c-5.888,0-10.667,4.779-10.667,10.667s4.779,10.667,10.667,10.667h234.667    c5.888,0,10.667-4.779,10.667-10.667S379.221,320,373.333,320z"/><path d="M352,213.333h-96v-32c0-5.888-4.779-10.667-10.667-10.667s-10.667,4.779-10.667,10.667V224    c0,5.888,4.779,10.667,10.667,10.667H352c5.888,0,10.667-4.779,10.667-10.667S357.888,213.333,352,213.333z"/><path d="M202.667,213.333h-68.075l13.632-27.221c2.624-5.269,0.491-11.669-4.779-14.315c-5.291-2.624-11.669-0.512-14.315,4.779    l-21.333,42.667c-1.664,3.285-1.472,7.232,0.469,10.368s5.376,5.056,9.067,5.056h85.333c5.888,0,10.667-4.779,10.667-10.667    S208.555,213.333,202.667,213.333z"/><path d="M288,256h-21.333c-5.888,0-10.667,4.779-10.667,10.667s4.779,10.667,10.667,10.667H288    c5.888,0,10.667-4.779,10.667-10.667S293.888,256,288,256z"/></g><g transform="matrix(0.08629405054638883 0.013918394931369432 -0.013918394931369432 0.08629405054638883 89.47183216255503 107.34561395769389)" id="L1_19"><path d="M334.974,0c-95.419,0-173.049,77.63-173.049,173.049c0,21.213,3.769,41.827,11.211,61.403L7.672,399.928    c-2.365,2.366-3.694,5.573-3.694,8.917v90.544c0,6.965,5.646,12.611,12.611,12.611h74.616c3.341,0,6.545-1.325,8.91-3.686    l25.145-25.107c2.37-2.366,3.701-5.577,3.701-8.925v-30.876h30.837c6.965,0,12.611-5.646,12.611-12.611v-12.36h12.361    c6.964,0,12.611-5.646,12.611-12.611v-27.136h27.136c3.344,0,6.551-1.329,8.917-3.694l40.121-40.121    c19.579,7.449,40.196,11.223,61.417,11.223c95.419,0,173.049-77.63,173.049-173.049C508.022,77.63,430.393,0,334.974,0z     M334.974,320.874c-20.642,0-40.606-4.169-59.339-12.393c-4.844-2.126-10.299-0.956-13.871,2.525    c-0.039,0.037-0.077,0.067-0.115,0.106l-42.354,42.354h-34.523c-6.965,0-12.611,5.646-12.611,12.611v27.136H159.8    c-6.964,0-12.611,5.646-12.611,12.611v12.36h-30.838c-6.964,0-12.611,5.646-12.611,12.611v38.257l-17.753,17.725H29.202v-17.821    l154.141-154.14c4.433-4.433,4.433-11.619,0-16.051s-11.617-4.434-16.053,0L29.202,436.854V414.07l167.696-167.708    c0.038-0.038,0.067-0.073,0.102-0.11c3.482-3.569,4.656-9.024,2.53-13.872c-8.216-18.732-12.38-38.695-12.38-59.33    c0-81.512,66.315-147.827,147.827-147.827S482.802,91.537,482.802,173.05C482.8,254.56,416.484,320.874,334.974,320.874z"/><path d="M387.638,73.144c-26.047,0-47.237,21.19-47.237,47.237s21.19,47.237,47.237,47.237s47.237-21.19,47.237-47.237    S413.686,73.144,387.638,73.144z M387.638,142.396c-12.139,0-22.015-9.876-22.015-22.015s9.876-22.015,22.015-22.015    s22.015,9.876,22.015,22.015S399.777,142.396,387.638,142.396z"/></g><g transform="matrix(0.46875 0 0 0.46875 -14.000003147125256 254.99999828338605)" id="L1_20"><path d="m123.105 116.034-4.546-10.484a6 6 0 0 0 1.769-6.643l-11.45-31.624a4.26 4.26 0 0 1 -.022-2.832l1.806-5.232a7.775 7.775 0 0 0 -3.4-9.21l-36.257-21.3a7.747 7.747 0 0 0 -8.287.287l-13.947-14.579a10.774 10.774 0 0 0 -5.513-3.068l-30.5-6.56a1.748 1.748 0 0 0 -2.079 1.344l-1.89 8.8a1.75 1.75 0 0 0 1.344 2.078l29.591 6.358a1.3 1.3 0 0 1 .652.36l13.4 14-.218.218a7.789 7.789 0 0 0 -1.84 8.034l22.382 64.219a6.048 6.048 0 0 0 8.535 3.362l14.217-7.49 1.1 2.527a6.042 6.042 0 0 0 6.575 3.551l4.359 10.045a1.75 1.75 0 0 0 1.606 1.054 1.73 1.73 0 0 0 .7-.145l11.009-4.769a1.747 1.747 0 0 0 .91-2.3zm-80.2-94.721a4.754 4.754 0 0 0 -2.44-1.364l-27.887-5.993 1.155-5.377 28.787 6.191a7.284 7.284 0 0 1 3.725 2.07l13.9 14.524-3.892 3.889zm59.7 87.264a2.531 2.531 0 0 1 -1.44-1.371l-1.847-4.257a1.748 1.748 0 0 0 -2.42-.851l-15.888 8.37a2.553 2.553 0 0 1 -3.6-1.419l-22.388-64.223a4.269 4.269 0 0 1 1.009-4.4l8.045-8.04a4.251 4.251 0 0 1 5.156-.658l36.257 21.3a4.264 4.264 0 0 1 1.865 5.051l-1.806 5.232a7.763 7.763 0 0 0 .039 5.167l11.45 31.623a2.541 2.541 0 0 1 -1.315 3.18c-.015.006-.031.008-.046.015s-.05.029-.076.042l-10.769 5.049c-.008 0-.017.005-.025.009s-.028.016-.043.023l-.174.082a2.527 2.527 0 0 1 -1.989.076zm8.8 10.622-3.615-8.332 7.7-3.611 3.714 8.564z"/><path d="m74.189 41.6 5.3 3.113a1.75 1.75 0 0 0 1.774-3.018l-5.3-3.113a1.75 1.75 0 0 0 -1.774 3.018z"/><path d="m86.54 69.372a8.113 8.113 0 0 0 -3.746-4.41l-3.841-2.111a8.125 8.125 0 0 0 -11.586 9.794l11.75 33.716a1.75 1.75 0 0 0 2.467.973l14.16-7.449a1.75 1.75 0 0 0 .835-2.133zm-4.787 33.918-11.081-31.8a4.627 4.627 0 0 1 4.367-6.147h.024l8.378 21.879-1.361 4.362a1.748 1.748 0 0 0 1.149 2.191 1.72 1.72 0 0 0 .522.08 1.748 1.748 0 0 0 1.669-1.228l1.543-4.939a1.746 1.746 0 0 0 -.036-1.148l-7.427-19.397 1.61.885a4.628 4.628 0 0 1 2.133 2.512l9.534 26.952z"/><path d="m17.245 37.836c-.51.524-12.495 12.964-12.495 22.764a13.75 13.75 0 1 0 27.5 0c0-9.8-11.985-22.236-12.495-22.76a1.8 1.8 0 0 0 -2.51-.004zm1.255 33.01a10.261 10.261 0 0 1 -10.25-10.246c0-6.693 7.268-15.583 10.251-18.95 2.983 3.36 10.249 12.243 10.249 18.95a10.261 10.261 0 0 1 -10.25 10.246z"/></g><g transform="matrix(0.08927840739488602 0 0 0.08927840739488602 265.19411516561513 124.13389205932617)" id="L1_21"><path d="m256.092 270c49.626 0 90-40.374 90-90s-40.374-90-90-90-90 40.374-90 90 40.374 90 90 90zm0-150c33.084 0 60 26.916 60 60s-26.916 60-60 60-60-26.916-60-60 26.916-60 60-60z"/><path d="m405.499 280.416c20.026-29.729 30.593-64.367 30.593-100.416 0-99.252-80.748-180-180-180s-180 80.748-180 180c0 36.049 10.567 70.687 30.593 100.416l149.407 231.769zm-149.407-250.416c82.71 0 150 67.29 150 150 0 28.378-7.875 55.689-22.802 79.498-.053.082-116.996 181.491-127.198 197.318-12.529-19.436-108.75-168.698-127.198-197.318-14.927-23.809-22.802-51.119-22.802-79.498 0-82.71 67.29-150 150-150z"/></g><g transform="matrix(0.9192388318967551 -0.3771236363619674 0.3771236363619674 0.9192388318967551 138.10912595223834 29.736544133956368)" id="L1_28" fill="#000000" stroke="none" stroke-width="1"><path d="M45.4,6.65 L30.4,0.084 C30.1449495,-0.027313148 29.8550505,-0.027313148 29.6,0.084 L14.6,6.65 C14.2357446,6.80897404 14.0002048,7.16856483 14,7.566 L14,23.266 C14.0054212,26.7943225 15.7009077,30.1064701 18.56,32.174 L28.927,39.651 C29.5672719,40.1144391 30.4327281,40.1144391 31.073,39.651 L41.44,32.175 C44.2990923,30.1074701 45.9945788,26.7953225 46,23.267 L46,7.566 C45.9997952,7.16856483 45.7642554,6.80897404 45.4,6.65 Z M44,23.267 C43.9954196,26.1529088 42.6085528,28.8619467 40.27,30.553 L30,37.96 L19.73,30.553 C17.3914472,28.8619467 16.0045804,26.1529088 16,23.267 L16,8.22 L30,2.092 L44,8.22 L44,23.267 Z" id="L1_22"/><path d="M29.6,4.45 L18.6,9.266 C18.2357446,9.42497404 18.0002048,9.78456483 18,10.182 L18,23.267 C18.003086,25.5106532 19.0814764,27.6168612 20.9,28.931 L29.415,35.073 C29.7643066,35.3249556 30.2356934,35.3249556 30.585,35.073 L39.1,28.931 C40.9185236,27.6168612 41.996914,25.5106532 42,23.267 L42,10.182 C41.9997952,9.78456483 41.7642554,9.42497404 41.4,9.266 L30.4,4.45 C30.1449495,4.33868685 29.8550505,4.33868685 29.6,4.45 Z M40,10.835 L40,23.267 C39.9969382,24.8680418 39.2273464,26.3707907 37.93,27.309 L30,33.029 L22.07,27.309 C20.7726536,26.3707907 20.0030618,24.8680418 20,23.267 L20,10.835 L30,6.458 L40,10.835 Z" id="L1_23"/><path d="M8.285,33.2 L6.122,28.146 C5.66202057,27.1040349 4.68110027,26.3866155 3.54874229,26.2639868 C2.4163843,26.1413582 1.30462076,26.6321504 0.632242236,27.5514868 C-0.0401362855,28.4708233 -0.170979487,29.6790349 0.289,30.721 L4.208,39.342 C4.7367119,40.509062 5.47222588,41.5708311 6.379,42.476 L12.542,48.64 C12.1949095,49.0078818 12.0010872,49.4942257 12,50 L12,58 C12,59.1045695 12.8954305,60 14,60 L25,60 C26.1045695,60 27,59.1045695 27,58 L27,50 C27,48.8954305 26.1045695,48 25,48 L25,46.139 C25.0306399,43.7706727 24.2579711,41.4618312 22.808,39.589 C21.9578989,38.470916 20.7993346,37.6258906 19.475,37.158 C17.3688382,36.273094 15.4318729,35.0300529 13.75,33.484 C12.1888463,32.1982345 9.97101938,32.0829806 8.285,33.2 Z M25,58 L14,58 L14,50 L25,50 L25,58 Z M21.247,40.838 C22.4126125,42.3566457 23.0304097,44.224839 23,46.139 L23,48 L14.731,48 L7.793,41.062 C7.05613326,40.3261769 6.45820511,39.463331 6.028,38.515 L2.109,29.894 C1.94175327,29.5260467 1.97287988,29.0983304 2.19163714,28.7584681 C2.41039441,28.4186059 2.78682049,28.2131465 3.191,28.213 C3.66664654,28.2126156 4.09651136,28.4964366 4.283,28.934 L6.52,34.151 C7.11402167,35.5429028 7.97024427,36.8075456 9.042,37.876 L13.61,42.445 C13.8610745,42.7049566 14.2328779,42.8092126 14.5825073,42.7176972 C14.9321368,42.6261817 15.2051817,42.3531368 15.2966972,42.0035073 C15.3882126,41.6538779 15.2839566,41.2820745 15.024,41.031 L10.456,36.462 C9.99666328,36.0037722 9.5836624,35.5013381 9.223,34.962 C10.1833362,34.2230209 11.5268309,34.2454194 12.462,35.016 C14.3313425,36.731555 16.4918904,38.0996763 18.842,39.056 C19.7995194,39.4041952 20.6351145,40.0233347 21.247,40.838 Z" id="L1_24"/><path d="M22,53 L21,53 C20.4477153,53 20,53.4477153 20,54 C20,54.5522847 20.4477153,55 21,55 L22,55 C22.5522847,55 23,54.5522847 23,54 C23,53.4477153 22.5522847,53 22,53 Z" id="L1_25"/><path d="M55.792,39.342 L59.711,30.721 C60.1928642,29.6755112 60.0736536,28.4514456 59.3991191,27.5185774 C58.7245846,26.5857091 57.5995134,26.0889571 56.4556875,26.2189655 C55.3118616,26.348974 54.3269714,27.0855465 53.879,28.146 L51.721,33.181 C50.0291245,32.0694769 47.8101972,32.1911509 46.25,33.481 C44.5681271,35.0270529 42.6311618,36.270094 40.525,37.155 C39.2006654,37.6228906 38.0421011,38.467916 37.192,39.586 C35.741385,41.4596396 34.9686796,43.7696481 35,46.139 L35,48 C33.8954305,48 33,48.8954305 33,50 L33,58 C33,59.1045695 33.8954305,60 35,60 L46,60 C47.1045695,60 48,59.1045695 48,58 L48,50 C47.9989128,49.4942257 47.8050905,49.0078818 47.458,48.64 L53.621,42.476 C54.5277741,41.5708311 55.2632881,40.509062 55.792,39.342 Z M46,58 L35,58 L35,50 L46,50 L46,58 Z M45.269,48 L37,48 L37,46.139 C36.9698168,44.2251802 37.587602,42.3573757 38.753,40.839 C39.3635264,40.0248642 40.1972635,39.4054671 41.153,39.056 C43.5035524,38.0999535 45.6644757,36.731809 47.534,35.016 C48.4681478,34.2395601 49.8154192,34.2134035 50.779,34.953 C50.4172837,35.4963142 50.0022252,36.0021563 49.54,36.463 L44.972,41.032 C44.5930278,41.4243789 44.5984476,42.0480848 44.9841814,42.4338186 C45.3699152,42.8195524 45.9936211,42.8249722 46.386,42.446 L50.954,37.877 C52.0257557,36.8085456 52.8819783,35.5439028 53.476,34.152 L55.713,28.934 C55.9000073,28.4970055 56.3296729,28.2137095 56.805,28.214 C57.2091795,28.2141465 57.5856056,28.4196059 57.8043629,28.7594681 C58.0231201,29.0993304 58.0542467,29.5270467 57.887,29.895 L53.968,38.516 C53.5377949,39.464331 52.9398667,40.3271769 52.203,41.063 L45.269,48 Z" id="L1_26"/><path d="M39,53 L38,53 C37.4477153,53 37,53.4477153 37,54 C37,54.5522847 37.4477153,55 38,55 L39,55 C39.5522847,55 40,54.5522847 40,54 C40,53.4477153 39.5522847,53 39,53 Z" id="L1_27"/><path d="M24.6,21.2 C24.1581722,20.8686292 23.5313709,20.9581722 23.2,21.4 C22.8686292,21.8418278 22.9581722,22.4686291 23.4,22.8 L27.4,25.8 C27.5730962,25.9298221 27.7836298,26 28,26 C28.056615,25.9998117 28.1131258,25.9951303 28.169,25.986 C28.4398302,25.9395277 28.6796036,25.783657 28.832,25.555 L36.832,13.555 C37.0302824,13.257755 37.0549246,12.8773069 36.8966441,12.5569669 C36.7383636,12.2366268 36.421207,12.025062 36.0646441,12.0019669 C35.7080812,11.9788718 35.3662824,12.147755 35.168,12.445 L27.754,23.566 L24.6,21.2 Z" id="Shape"/></g></defs><g fi:class="KUsePattern"><pattern id="pattern_L1_17" width="350" height="350" patternUnits="userSpaceOnUse"><use xlink:href="#L1_17" x="-350" y="-350"/><use xlink:href="#L1_17" x="0" y="-350"/><use xlink:href="#L1_17" x="350" y="-350"/><use xlink:href="#L1_17" x="-350" y="0"/><use xlink:href="#L1_17" x="0" y="0"/><use xlink:href="#L1_17" x="350" y="0"/><use xlink:href="#L1_17" x="-350" y="350"/><use xlink:href="#L1_17" x="0" y="350"/><use xlink:href="#L1_17" x="350" y="350"/></pattern><rect x="0" y="0" width="100%" height="100%" fill="url(#pattern_L1_17)"/></g><g fi:class="KUsePattern" opacity="0.8"><pattern id="pattern_L1_18" width="350" height="350" patternUnits="userSpaceOnUse"><use xlink:href="#L1_18" x="-350" y="-350"/><use xlink:href="#L1_18" x="0" y="-350"/><use xlink:href="#L1_18" x="350" y="-350"/><use xlink:href="#L1_18" x="-350" y="0"/><use xlink:href="#L1_18" x="0" y="0"/><use xlink:href="#L1_18" x="350" y="0"/><use xlink:href="#L1_18" x="-350" y="350"/><use xlink:href="#L1_18" x="0" y="350"/><use xlink:href="#L1_18" x="350" y="350"/></pattern><rect x="0" y="0" width="100%" height="100%" fill="url(#pattern_L1_18)"/></g><g fi:class="KUsePattern" opacity="0.71"><pattern id="pattern_L1_19" width="350" height="350" patternUnits="userSpaceOnUse"><use xlink:href="#L1_19" x="-350" y="-350"/><use xlink:href="#L1_19" x="0" y="-350"/><use xlink:href="#L1_19" x="350" y="-350"/><use xlink:href="#L1_19" x="-350" y="0"/><use xlink:href="#L1_19" x="0" y="0"/><use xlink:href="#L1_19" x="350" y="0"/><use xlink:href="#L1_19" x="-350" y="350"/><use xlink:href="#L1_19" x="0" y="350"/><use xlink:href="#L1_19" x="350" y="350"/></pattern><rect x="0" y="0" width="100%" height="100%" fill="url(#pattern_L1_19)"/></g><g fi:class="KUsePattern"><pattern id="pattern_L1_20" width="350" height="350" patternUnits="userSpaceOnUse"><use xlink:href="#L1_20" x="-350" y="-350"/><use xlink:href="#L1_20" x="0" y="-350"/><use xlink:href="#L1_20" x="350" y="-350"/><use xlink:href="#L1_20" x="-350" y="0"/><use xlink:href="#L1_20" x="0" y="0"/><use xlink:href="#L1_20" x="350" y="0"/><use xlink:href="#L1_20" x="-350" y="350"/><use xlink:href="#L1_20" x="0" y="350"/><use xlink:href="#L1_20" x="350" y="350"/></pattern><rect x="0" y="0" width="100%" height="100%" fill="url(#pattern_L1_20)"/></g><g fi:class="KUsePattern" opacity="0.72"><pattern id="pattern_L1_21" width="350" height="350" patternUnits="userSpaceOnUse"><use xlink:href="#L1_21" x="-350" y="-350"/><use xlink:href="#L1_21" x="0" y="-350"/><use xlink:href="#L1_21" x="350" y="-350"/><use xlink:href="#L1_21" x="-350" y="0"/><use xlink:href="#L1_21" x="0" y="0"/><use xlink:href="#L1_21" x="350" y="0"/><use xlink:href="#L1_21" x="-350" y="350"/><use xlink:href="#L1_21" x="0" y="350"/><use xlink:href="#L1_21" x="350" y="350"/></pattern><rect x="0" y="0" width="100%" height="100%" fill="url(#pattern_L1_21)"/></g><g fi:class="KUsePattern" opacity="0.71"><pattern id="pattern_L1_28" width="350" height="350" patternUnits="userSpaceOnUse"><use xlink:href="#L1_28" x="-350" y="-350"/><use xlink:href="#L1_28" x="0" y="-350"/><use xlink:href="#L1_28" x="350" y="-350"/><use xlink:href="#L1_28" x="-350" y="0"/><use xlink:href="#L1_28" x="0" y="0"/><use xlink:href="#L1_28" x="350" y="0"/><use xlink:href="#L1_28" x="-350" y="350"/><use xlink:href="#L1_28" x="0" y="350"/><use xlink:href="#L1_28" x="350" y="350"/></pattern><rect x="0" y="0" width="100%" height="100%" fill="url(#pattern_L1_28)"/></g></svg>