<svg xmlns="http://www.w3.org/2000/svg" xmlns:xlink="http://www.w3.org/1999/xlink" version="1.1" width="1000" height="1000" viewBox="0 0 1000 1000" xml:space="preserve">
<desc>Created with Fabric.js 3.5.0</desc>
<defs>
</defs>
<rect x="0" y="0" width="100%" height="100%" fill="#ffffff"/>
<g transform="matrix(14.5455 0 0 14.5455 500.0014 500.0014)" id="468061">
<path style="stroke: none; stroke-width: 1; stroke-dasharray: none; stroke-linecap: butt; stroke-dashoffset: 0; stroke-linejoin: miter; stroke-miterlimit: 4; is-custom-font: none; font-file-url: none; fill: rgb(0,87,217); fill-rule: evenodd; opacity: 1;" vector-effect="non-scaling-stroke" transform=" translate(-32, -32.25)" d="M 26 14 C 26 15.505 25.4278 17.3497 24.3211 19.4268 C 23.2323 21.4703 21.7439 23.5211 20.1953 25.3794 C 18.6818 27.1955 17.1601 28.7694 15.9999 29.903 C 14.8397 28.7694 13.318 27.1956 11.8046 25.3795 C 10.256 23.5211 8.76759 21.4703 7.67889 19.4269 C 6.57223 17.3497 6 15.505 6 14 C 6 8.57098 10.4936 4 15.9998 4 C 21.5062 4 26 8.57108 26 14 Z M 29 14 C 29 22.8 15.9998 34 15.9998 34 C 15.9998 34 3 22.8 3 14 C 3 6.93075 8.82014 1 15.9998 1 C 23.1795 1 29 6.93075 29 14 Z M 18 14 C 18 15.1046 17.1046 16 16 16 C 14.8954 16 14 15.1046 14 14 C 14 12.8954 14.8954 12 16 12 C 17.1046 12 18 12.8954 18 14 Z M 21 14 C 21 16.7614 18.7614 19 16 19 C 13.2386 19 11 16.7614 11 14 C 11 11.2386 13.2386 9 16 9 C 18.7614 9 21 11.2386 21 14 Z M 50 38 C 51.1046 38 52 37.1046 52 36 C 52 34.8954 51.1046 34 50 34 C 48.8954 34 48 34.8954 48 36 C 48 37.1046 48.8954 38 50 38 Z M 50 41 C 52.7614 41 55 38.7614 55 36 C 55 33.2386 52.7614 31 50 31 C 47.2386 31 45 33.2386 45 36 C 45 38.7614 47.2386 41 50 41 Z M 60 36 C 60 37.505 59.4278 39.3497 58.3211 41.4268 C 57.2323 43.4703 55.7439 45.5211 54.1953 47.3794 C 52.6818 49.1955 51.1601 50.7694 49.9999 51.903 C 48.8397 50.7694 47.318 49.1956 45.8046 47.3795 C 44.256 45.5211 42.7676 43.4703 41.6789 41.4269 C 40.5722 39.3497 40 37.505 40 36 C 40 30.571 44.4936 26 49.9998 26 C 55.5062 26 60 30.5711 60 36 Z M 63 36 C 63 44.8 49.9998 56 49.9998 56 C 49.9998 56 37 44.8 37 36 C 37 28.9308 42.8201 23 49.9998 23 C 57.1795 23 63 28.9308 63 36 Z M 18 50.5 C 18 51.6046 17.1046 52.5 16 52.5 C 14.8954 52.5 14 51.6046 14 50.5 C 14 49.3954 14.8954 48.5 16 48.5 C 17.1046 48.5 18 49.3954 18 50.5 Z M 16 63.5 C 17.1046 63.5 18 62.6046 18 61.5 C 18 60.3954 17.1046 59.5 16 59.5 C 14.8954 59.5 14 60.3954 14 61.5 C 14 62.6046 14.8954 63.5 16 63.5 Z M 39 61.5 C 39 62.6046 38.1046 63.5 37 63.5 C 35.8954 63.5 35 62.6046 35 61.5 C 35 60.3954 35.8954 59.5 37 59.5 C 38.1046 59.5 39 60.3954 39 61.5 Z M 25 38 H 14 V 41 H 25 C 27.2091 41 29 42.7909 29 45 C 29 47.2091 27.2091 49 25 49 H 21 V 52 H 25 C 28.866 52 32 48.866 32 45 C 32 41.134 28.866 38 25 38 Z M 4 56 C 4 53.7909 5.79086 52 8 52 H 11 V 49 H 8 C 4.13401 49 1 52.134 1 56 C 1 59.866 4.13401 63 8 63 H 11 V 60 H 8 C 5.79086 60 4 58.2091 4 56 Z M 32 60 H 21 V 63 H 32 V 60 Z M 52 60 H 42 V 63 H 52 V 60 Z" stroke-linecap="round"/>
</g>
</svg>