<svg xmlns="http://www.w3.org/2000/svg" xmlns:xlink="http://www.w3.org/1999/xlink" version="1.1" width="1000" height="1000" viewBox="0 0 1000 1000" xml:space="preserve">
<desc>Created with Fabric.js 3.5.0</desc>
<defs>
</defs>
<rect x="0" y="0" width="100%" height="100%" fill="#ffffff"/>
<g transform="matrix(14.2192 0 0 14.2192 499.9997 499.9997)" id="210571">
<path style="stroke: none; stroke-width: 1; stroke-dasharray: none; stroke-linecap: butt; stroke-dashoffset: 0; stroke-linejoin: miter; stroke-miterlimit: 4; is-custom-font: none; font-file-url: none; fill: rgb(0,87,217); fill-rule: evenodd; opacity: 1;" vector-effect="non-scaling-stroke" transform=" translate(-31.4003, -32.0319)" d="M 37.1342 2.73392 C 39.447 3.921 41.5694 5.42824 43.4426 7.19746 L 45.5025 5.01649 C 43.4255 3.05475 41.0712 1.38257 38.504 0.0649414 L 37.1342 2.73392 Z M 45.4929 9.3553 C 47.1679 11.3207 48.5693 13.5254 49.6387 15.9103 L 52.3761 14.6829 C 51.1888 12.035 49.6337 9.5889 47.7762 7.4094 L 45.4929 9.3553 Z M 50.6958 18.6576 C 51.4808 21.0824 51.9367 23.6566 52.01 26.3285 L 55.0089 26.2463 C 54.9277 23.2849 54.4221 20.4274 53.55 17.7336 L 50.6958 18.6576 Z M 51.9361 29.2592 C 51.728 31.9185 51.14 34.4697 50.2267 36.8595 L 53.029 37.9305 C 54.0435 35.276 54.6962 32.4431 54.927 29.4932 L 51.9361 29.2592 Z M 24.6579 47.7504 C 36.067 47.7504 45.3158 38.5015 45.3158 27.0925 C 45.3158 15.6834 36.067 6.43457 24.6579 6.43457 C 13.2489 6.43457 4 15.6834 4 27.0925 C 4 38.5015 13.2489 47.7504 24.6579 47.7504 Z M 24.6579 50.7504 C 30.651 50.7504 36.1236 48.522 40.2923 44.8485 L 43.4806 48.0369 L 40.5571 51.0213 L 52.1495 62.3771 C 54.3896 64.5715 57.9845 64.5344 60.1788 62.2943 C 62.3732 60.0542 62.3362 56.4594 60.0961 54.265 L 48.5037 42.9092 L 45.5801 45.8937 L 42.4136 42.7272 C 46.0873 38.5585 48.3158 33.0857 48.3158 27.0925 C 48.3158 14.0266 37.7238 3.43457 24.6579 3.43457 C 11.592 3.43457 1 14.0266 1 27.0925 C 1 40.1584 11.592 50.7504 24.6579 50.7504 Z M 38.6917 27.0933 C 38.6917 34.8439 32.4086 41.127 24.658 41.127 C 16.9074 41.127 10.6243 34.8439 10.6243 27.0933 C 10.6243 19.3427 16.9074 13.0596 24.658 13.0596 C 32.4086 13.0596 38.6917 19.3427 38.6917 27.0933 Z M 41.6917 27.0933 C 41.6917 36.5007 34.0654 44.127 24.658 44.127 C 15.2505 44.127 7.62427 36.5007 7.62427 27.0933 C 7.62427 17.6858 15.2505 10.0596 24.658 10.0596 C 34.0654 10.0596 41.6917 17.6858 41.6917 27.0933 Z M 23.935 24.7273 C 25.051 25.3614 26.17 26.2679 27.0235 27.5289 C 27.8771 26.2679 28.996 25.3614 30.1121 24.7273 C 28.996 24.0931 27.8771 23.1867 27.0235 21.9256 C 26.17 23.1867 25.051 24.0931 23.935 24.7273 Z M 25.5235 16.6836 H 28.5235 C 28.5235 19.7224 30.0779 21.2884 31.6938 22.1746 C 32.5289 22.6325 33.3793 22.9013 34.0307 23.0544 C 34.3533 23.1302 34.6189 23.1757 34.7982 23.2018 C 34.8877 23.2148 34.955 23.2229 34.9965 23.2275 C 35.0172 23.2297 35.0314 23.2311 35.0386 23.2318 L 35.0401 23.232 C 35.0399 23.232 35.0398 23.2319 35.0388 23.2435 V 26.211 C 35.0398 26.2226 35.0399 26.2226 35.0401 26.2226 L 35.0386 26.2228 C 35.0314 26.2234 35.0172 26.2248 34.9965 26.2271 C 34.955 26.2317 34.8877 26.2397 34.7982 26.2527 C 34.6189 26.2788 34.3533 26.3244 34.0307 26.4002 C 33.3793 26.5533 32.5289 26.8221 31.6938 27.28 C 30.0779 28.1661 28.5235 29.7322 28.5235 32.771 H 25.5235 C 25.5235 29.7322 23.9692 28.1661 22.3532 27.28 C 21.5182 26.8221 20.6677 26.5533 20.0163 26.4002 C 19.6937 26.3244 19.4282 26.2788 19.2488 26.2527 C 19.1594 26.2397 19.0921 26.2317 19.0506 26.2271 C 19.0299 26.2248 19.0157 26.2234 19.0084 26.2228 L 19.007 26.2226 C 19.0071 26.2226 19.0072 26.2226 19.0083 26.211 V 23.2435 L 19.0072 23.2329 C 19.0071 23.232 19.0071 23.232 19.007 23.232 L 19.0084 23.2318 C 19.0157 23.2311 19.0299 23.2297 19.0506 23.2275 C 19.0921 23.2229 19.1594 23.2148 19.2488 23.2018 C 19.4282 23.1757 19.6937 23.1302 20.0163 23.0544 C 20.6677 22.9013 21.5182 22.6325 22.3532 22.1746 C 23.9692 21.2884 25.5235 19.7224 25.5235 16.6836 Z M 54.2488 60.234 L 44.7995 50.9776 L 48.5474 47.1516 L 57.9967 56.4081 C 59.0532 57.443 59.0707 59.1385 58.0358 60.195 C 57.0008 61.2515 55.3054 61.269 54.2488 60.234 Z" stroke-linecap="round"/>
</g>
</svg>