<svg id="visual" viewBox="0 0 900 600" width="900" height="600" xmlns="http://www.w3.org/2000/svg" xmlns:xlink="http://www.w3.org/1999/xlink" version="1.1"><rect x="0" y="0" width="900" height="600" fill="#0057D9"></rect><path d="M0 332L18.8 346.5C37.7 361 75.3 390 112.8 399.8C150.3 409.7 187.7 400.3 225.2 391.7C262.7 383 300.3 375 337.8 391C375.3 407 412.7 447 450.2 438.2C487.7 429.3 525.3 371.7 562.8 366.7C600.3 361.7 637.7 409.3 675.2 425.3C712.7 441.3 750.3 425.7 787.8 424.5C825.3 423.3 862.7 436.7 881.3 443.3L900 450L900 601L881.3 601C862.7 601 825.3 601 787.8 601C750.3 601 712.7 601 675.2 601C637.7 601 600.3 601 562.8 601C525.3 601 487.7 601 450.2 601C412.7 601 375.3 601 337.8 601C300.3 601 262.7 601 225.2 601C187.7 601 150.3 601 112.8 601C75.3 601 37.7 601 18.8 601L0 601Z" fill="#002233" stroke-linecap="round" stroke-linejoin="miter"></path></svg>