<svg id="visual" viewBox="0 0 960 540" width="960" height="540" xmlns="http://www.w3.org/2000/svg" xmlns:xlink="http://www.w3.org/1999/xlink" version="1.1"><rect x="0" y="0" width="960" height="540" fill="#ffffff"></rect><path d="M0 393L22.8 386.2C45.7 379.3 91.3 365.7 137 357.2C182.7 348.7 228.3 345.3 274 339.5C319.7 333.7 365.3 325.3 411.2 333.5C457 341.7 503 366.3 548.8 369.5C594.7 372.7 640.3 354.3 686 348.7C731.7 343 777.3 350 823 359.8C868.7 369.7 914.3 382.3 937.2 388.7L960 395L960 541L937.2 541C914.3 541 868.7 541 823 541C777.3 541 731.7 541 686 541C640.3 541 594.7 541 548.8 541C503 541 457 541 411.2 541C365.3 541 319.7 541 274 541C228.3 541 182.7 541 137 541C91.3 541 45.7 541 22.8 541L0 541Z" fill="#a7c3ea"></path><path d="M0 361L22.8 368.5C45.7 376 91.3 391 137 398.8C182.7 406.7 228.3 407.3 274 410.2C319.7 413 365.3 418 411.2 412.2C457 406.3 503 389.7 548.8 378.3C594.7 367 640.3 361 686 369.8C731.7 378.7 777.3 402.3 823 415.2C868.7 428 914.3 430 937.2 431L960 432L960 541L937.2 541C914.3 541 868.7 541 823 541C777.3 541 731.7 541 686 541C640.3 541 594.7 541 548.8 541C503 541 457 541 411.2 541C365.3 541 319.7 541 274 541C228.3 541 182.7 541 137 541C91.3 541 45.7 541 22.8 541L0 541Z" fill="#81aae9"></path><path d="M0 456L22.8 452C45.7 448 91.3 440 137 436.3C182.7 432.7 228.3 433.3 274 429C319.7 424.7 365.3 415.3 411.2 417.3C457 419.3 503 432.7 548.8 441C594.7 449.3 640.3 452.7 686 452.2C731.7 451.7 777.3 447.3 823 447.2C868.7 447 914.3 451 937.2 453L960 455L960 541L937.2 541C914.3 541 868.7 541 823 541C777.3 541 731.7 541 686 541C640.3 541 594.7 541 548.8 541C503 541 457 541 411.2 541C365.3 541 319.7 541 274 541C228.3 541 182.7 541 137 541C91.3 541 45.7 541 22.8 541L0 541Z" fill="#5d90e6"></path><path d="M0 454L22.8 455C45.7 456 91.3 458 137 455.2C182.7 452.3 228.3 444.7 274 444.5C319.7 444.3 365.3 451.7 411.2 452.2C457 452.7 503 446.3 548.8 447.5C594.7 448.7 640.3 457.3 686 459.2C731.7 461 777.3 456 823 459.2C868.7 462.3 914.3 473.7 937.2 479.3L960 485L960 541L937.2 541C914.3 541 868.7 541 823 541C777.3 541 731.7 541 686 541C640.3 541 594.7 541 548.8 541C503 541 457 541 411.2 541C365.3 541 319.7 541 274 541C228.3 541 182.7 541 137 541C91.3 541 45.7 541 22.8 541L0 541Z" fill="#3875e1"></path><path d="M0 480L22.8 485.3C45.7 490.7 91.3 501.3 137 505.5C182.7 509.7 228.3 507.3 274 503.8C319.7 500.3 365.3 495.7 411.2 490.8C457 486 503 481 548.8 481.3C594.7 481.7 640.3 487.3 686 491.8C731.7 496.3 777.3 499.7 823 500.8C868.7 502 914.3 501 937.2 500.5L960 500L960 541L937.2 541C914.3 541 868.7 541 823 541C777.3 541 731.7 541 686 541C640.3 541 594.7 541 548.8 541C503 541 457 541 411.2 541C365.3 541 319.7 541 274 541C228.3 541 182.7 541 137 541C91.3 541 45.7 541 22.8 541L0 541Z" fill="#0059d9"></path></svg>