<?xml version="1.0" standalone="no"?>
<!DOCTYPE svg PUBLIC "-//W3C//DTD SVG 20010904//EN"
 "http://www.w3.org/TR/2001/REC-SVG-20010904/DTD/svg10.dtd">
<svg version="1.0" xmlns="http://www.w3.org/2000/svg"
 width="1080.000000pt" height="1080.000000pt" viewBox="0 0 1080.000000 1080.000000"
 preserveAspectRatio="xMidYMid meet">

<g transform="translate(0.000000,1080.000000) scale(0.100000,-0.100000)"
fill="#000000" stroke="none">
<path d="M3867 5979 c-115 -27 -257 -138 -315 -247 -79 -147 -81 -345 -7 -492
58 -114 193 -223 319 -256 68 -18 188 -18 261 1 137 36 263 141 325 269 64
136 64 316 -1 454 -59 124 -202 242 -330 271 -53 13 -199 12 -252 0z m285
-141 c75 -35 142 -103 181 -186 30 -62 32 -75 32 -172 0 -97 -2 -110 -32 -172
-39 -82 -106 -151 -181 -186 -50 -24 -70 -27 -157 -27 -87 0 -107 3 -155 26
-85 41 -135 90 -177 177 -36 73 -38 80 -38 176 0 71 5 116 18 151 36 103 132
197 236 230 73 23 202 15 273 -17z"/>
<path d="M2530 5480 l0 -490 66 0 67 0 -5 400 c-4 316 -3 397 7 383 6 -10 119
-190 250 -400 l238 -383 68 0 69 0 0 490 0 490 -65 0 -65 0 0 -382 0 -383
-237 383 -238 382 -77 0 -78 0 0 -490z"/>
<path d="M5601 5684 c-132 -230 -166 -283 -176 -272 -6 7 -101 134 -210 281
-109 147 -201 264 -205 260 -8 -8 -91 -142 -384 -618 -82 -132 -164 -264 -183
-293 l-34 -53 68 3 68 3 140 226 c77 125 183 297 235 382 52 86 98 156 101
157 11 0 29 -51 29 -85 0 -18 -13 -67 -30 -108 -40 -101 -40 -141 2 -167 17
-10 48 -22 67 -25 50 -8 113 -45 128 -75 20 -40 15 -95 -16 -189 -16 -47 -32
-94 -36 -103 -6 -16 1 -18 69 -18 l76 0 81 123 c44 67 146 238 227 379 81 142
151 256 156 255 5 -2 22 -28 38 -58 33 -63 32 -91 -7 -177 -14 -31 -28 -75
-31 -97 -8 -52 16 -75 111 -105 95 -30 125 -62 125 -133 -1 -45 -16 -104 -45
-169 -7 -17 7 -18 214 -18 122 0 221 2 221 6 0 5 -616 952 -629 966 -4 5 -80
-121 -170 -278z"/>
<path d="M6646 5493 c-99 -263 -181 -484 -184 -490 -3 -10 14 -13 66 -13 l70
0 42 123 c24 67 48 128 53 135 7 9 57 12 210 10 l201 -3 46 -130 47 -130 72
-3 71 -3 -15 38 c-8 21 -91 241 -184 488 l-169 450 -74 3 -73 3 -179 -478z
m334 102 c40 -110 75 -206 77 -212 4 -10 -31 -13 -156 -13 -89 0 -161 3 -161
8 -1 21 154 431 161 425 4 -4 39 -98 79 -208z"/>
<path d="M7520 5480 l0 -490 183 0 c260 0 351 24 458 119 104 91 151 207 151
371 0 164 -47 280 -151 371 -108 96 -195 119 -453 119 l-188 0 0 -490z m452
345 c62 -22 143 -95 173 -156 35 -68 49 -172 36 -260 -15 -91 -48 -155 -109
-210 -73 -66 -122 -81 -284 -86 l-138 -6 0 373 0 372 138 -5 c95 -3 152 -10
184 -22z"/>
</g>
</svg>
